<svg width="39" height="39" viewBox="0 0 39 39" fill="none" xmlns="http://www.w3.org/2000/svg">
<g filter="url(#filter0_d_15_1773)">
<rect x="3.67184" y="3.66" width="31.68" height="31.68" rx="15.84" stroke="#FCC436" stroke-width="1.32"/>
</g>
<path d="M28.6742 17.5299V26.731C28.6742 27.0591 28.4084 27.3246 28.0805 27.3246H10.8655C10.5376 27.3246 10.2719 27.0591 10.2719 26.731V17.5299C10.2719 17.2023 10.5376 16.9362 10.8655 16.9362L20.9559 15.322" stroke="#FCC436" stroke-width="1.98" stroke-miterlimit="10" stroke-linecap="round" stroke-linejoin="round"/>
<path d="M26.0084 14.577C27.5054 14.7285 28.6741 15.9931 28.6741 17.5299" stroke="#FCC436" stroke-width="1.98" stroke-miterlimit="10" stroke-linecap="round" stroke-linejoin="round"/>
<path d="M10.2719 17.27L10.5687 21.0915C11.3884 21.0915 12.0527 20.4272 12.0527 19.6078C12.0527 18.7881 12.7171 18.1234 13.5368 18.1234C14.3565 18.1234 15.0208 18.7881 15.0208 19.6078C15.0208 20.4272 15.6852 21.0915 16.5049 21.0915C17.3246 21.0915 17.989 20.4272 17.989 19.6078C17.989 18.7881 18.6533 18.1234 19.473 18.1234C20.2927 18.1234 20.9571 18.7881 20.9571 19.6078C20.9571 20.4272 21.6214 21.0915 22.4411 21.0915C23.2608 21.0915 23.9252 20.4272 23.9252 19.6078C23.9252 18.7881 24.5895 18.1234 25.4092 18.1234C26.2289 18.1234 26.8933 18.7881 26.8933 19.6078C26.8933 20.4272 27.5577 21.0915 28.3774 21.0915L28.0919 14.96" fill="#FCC436"/>
<path d="M10.2719 23.9933H28.6742" stroke="#FCC436" stroke-width="1.98" stroke-miterlimit="10" stroke-linecap="round" stroke-linejoin="round"/>
<path d="M23.48 17.036C24.8464 17.036 25.954 15.9283 25.954 14.5619C25.954 13.1956 24.8464 12.0879 23.48 12.0879C22.1136 12.0879 21.0059 13.1956 21.0059 14.5619C21.0059 15.9283 22.1136 17.036 23.48 17.036Z" stroke="#FCC436" stroke-width="1.98" stroke-miterlimit="10" stroke-linecap="round" stroke-linejoin="round"/>
<path d="M23.4799 13.9681C23.4799 12.3289 24.8086 11 26.448 11" stroke="#FCC436" stroke-width="1.32" stroke-miterlimit="10" stroke-linecap="round" stroke-linejoin="round"/>
<defs>
<filter id="filter0_d_15_1773" x="0.096664" y="0.0848231" width="38.8304" height="38.8304" filterUnits="userSpaceOnUse" color-interpolation-filters="sRGB">
<feFlood flood-opacity="0" result="BackgroundImageFix"/>
<feColorMatrix in="SourceAlpha" type="matrix" values="0 0 0 0 0 0 0 0 0 0 0 0 0 0 0 0 0 0 127 0" result="hardAlpha"/>
<feOffset/>
<feGaussianBlur stdDeviation="1.45759"/>
<feComposite in2="hardAlpha" operator="out"/>
<feColorMatrix type="matrix" values="0 0 0 0 0 0 0 0 0 0 0 0 0 0 0 0 0 0 0.25 0"/>
<feBlend mode="normal" in2="BackgroundImageFix" result="effect1_dropShadow_15_1773"/>
<feBlend mode="normal" in="SourceGraphic" in2="effect1_dropShadow_15_1773" result="shape"/>
</filter>
</defs>
</svg>
